<svg viewBox="0 0 1200 490" xmlns="http://www.w3.org/2000/svg" font-family="-apple-system, BlinkMacSystemFont, 'Segoe UI', Helvetica, Arial, sans-serif">
  <rect width="1200" height="490" rx="20" fill="#191920"/>
  <rect x="0.5" y="0.5" width="1199" height="489" rx="19.5" fill="none" stroke="#2e2e38" stroke-width="1"/>

  <text x="56" y="58" fill="#ededf2" font-size="30" font-weight="600" letter-spacing="-0.4">Inline link suggestions</text>
  <text x="56" y="96" fill="#a7a7b4" font-size="18">As you write, it scans the note for concepts that already have a note of their own, and</text>
  <text x="56" y="122" fill="#a7a7b4" font-size="18">underlines only the ones genuinely <tspan fill="#cfcfe0" font-weight="500">related</tspan> to what you're writing, in blue. Click an underline</text>
  <text x="56" y="148" fill="#a7a7b4" font-size="18">to turn that mention into a <tspan fill="#cfcfe0" font-weight="500">[[link]]</tspan>. Common words stay quiet unless they actually fit the topic.</text>

  <g transform="translate(56,180)">
    <rect x="0" y="0" width="486" height="268" rx="14" fill="#202027" stroke="#33333f" stroke-width="1"/>
    <text x="22" y="36" fill="#7d7d88" font-size="13" font-weight="500">EDITING · Training notes</text>
    <line x1="22" y1="52" x2="464" y2="52" stroke="#2c2c36" stroke-width="1"/>
    <text x="22" y="98" fill="#d4d4dc" font-size="18">The optimizer reduces the loss</text>
    <text x="22" y="132" fill="#d4d4dc" font-size="18">at each step by following the</text>
    <text x="22" y="166" fill="#d4d4dc" font-size="18"><tspan fill="#dfe3ea">gradient descent</tspan> downhill.</text>
    <line x1="22" y1="173" x2="167" y2="173" stroke="#5b9bff" stroke-width="2" stroke-linecap="round"/>

    <g transform="translate(95,176)">
      <path d="M0 0 L0 22 L6 16 L11 27 L15 25 L10 15 L18 15 Z" fill="#f4f4f6" stroke="#1a1a1f" stroke-width="1"/>
    </g>
    <g transform="translate(140,210)">
      <rect x="0" y="0" width="92" height="30" rx="8" fill="#1a2840" stroke="#34507a" stroke-width="1"/>
      <text x="46" y="20" fill="#9cc4ff" font-size="13" text-anchor="middle">1 click</text>
    </g>
  </g>

  <g transform="translate(600,314)">
    <circle cx="0" cy="0" r="26" fill="#221f33" stroke="#4a3f78" stroke-width="1"/>
    <path d="M-9 0 H7 M1 -7 L9 0 L1 7" fill="none" stroke="#a78bfa" stroke-width="2.4" stroke-linecap="round" stroke-linejoin="round"/>
  </g>

  <g transform="translate(658,180)">
    <rect x="0" y="0" width="486" height="268" rx="14" fill="#202027" stroke="#33333f" stroke-width="1"/>
    <text x="22" y="36" fill="#7d7d88" font-size="13" font-weight="500">LINKED · Training notes</text>
    <line x1="22" y1="52" x2="464" y2="52" stroke="#2c2c36" stroke-width="1"/>
    <text x="22" y="98" fill="#d4d4dc" font-size="18">The optimizer reduces the loss</text>
    <text x="22" y="132" fill="#d4d4dc" font-size="18">at each step by following the</text>
    <text x="22" y="166" fill="#d4d4dc" font-size="18"><tspan fill="#a78bfa" font-weight="500">[[gradient descent]]</tspan> downhill.</text>

    <g transform="translate(22,210)">
      <rect x="0" y="0" width="196" height="30" rx="8" fill="#1c2a22" stroke="#2f5a3f" stroke-width="1"/>
      <path d="M12 15 l5 5 l9 -11" fill="none" stroke="#4ade80" stroke-width="2.2" stroke-linecap="round" stroke-linejoin="round"/>
      <text x="36" y="20" fill="#bfe6cd" font-size="13">Linked to your note</text>
    </g>
  </g>
</svg>
