<svg viewBox="0 0 1200 620" xmlns="http://www.w3.org/2000/svg" role="img" font-family="-apple-system, BlinkMacSystemFont, 'Segoe UI', Helvetica, Arial, sans-serif">
<title>The vault map: every note a point, placed so related notes sit together, coloured by cluster and named from the notes themselves</title>
<rect width="1200" height="620" rx="20" fill="#191920" stroke="#2e2e38"/>
<text x="40" y="52" fill="#ededf2" font-size="30" font-weight="600" letter-spacing="-0.4">A map of your whole vault</text>
<text x="40" y="78" fill="#8a8f9e" font-size="15">Every note is a point. Nothing was tagged or foldered to make this: the positions and the cluster names both come out of the notes.</text>
<rect x="40" y="96" width="760" height="470" rx="14" fill="#15151b" stroke="#2a2a34"/>
<circle cx="408.9" cy="516.3" r="3" fill="#a7a7b4" opacity="0.66"/>
<circle cx="435.5" cy="464.8" r="3" fill="#a7a7b4" opacity="0.66"/>
<circle cx="379.8" cy="540.2" r="3" fill="#a7a7b4" opacity="0.66"/>
<circle cx="280.8" cy="377.8" r="3" fill="#a7a7b4" opacity="0.66"/>
<circle cx="410.4" cy="360.8" r="3" fill="#9a7f8b" opacity="0.66"/>
<circle cx="480.3" cy="400.2" r="3" fill="#9a7f8b" opacity="0.66"/>
<circle cx="413.1" cy="378.8" r="3" fill="#a7a7b4" opacity="0.66"/>
<circle cx="599.6" cy="423.1" r="3" fill="#9a7f8b" opacity="0.66"/>
<circle cx="130.4" cy="353.9" r="3" fill="#52c8d0" opacity="0.66"/>
<circle cx="258.9" cy="276.1" r="3" fill="#52c8d0" opacity="0.66"/>
<circle cx="401.0" cy="367.6" r="3" fill="#a7a7b4" opacity="0.66"/>
<circle cx="290.3" cy="206.8" r="3" fill="#52c8d0" opacity="0.66"/>
<circle cx="465.8" cy="138.0" r="3" fill="#8a93c8" opacity="0.66"/>
<circle cx="195.9" cy="302.9" r="3" fill="#52c8d0" opacity="0.66"/>
<circle cx="78.7" cy="352.5" r="3" fill="#52c8d0" opacity="0.66"/>
<circle cx="529.8" cy="291.1" r="3" fill="#8a93c8" opacity="0.66"/>
<circle cx="495.9" cy="315.2" r="3" fill="#8a93c8" opacity="0.66"/>
<circle cx="470.1" cy="300.5" r="3" fill="#9a7f8b" opacity="0.66"/>
<circle cx="400.9" cy="465.0" r="3" fill="#9a7f8b" opacity="0.66"/>
<circle cx="148.2" cy="197.9" r="3" fill="#52c8d0" opacity="0.66"/>
<circle cx="562.6" cy="380.7" r="3" fill="#9a7f8b" opacity="0.66"/>
<circle cx="578.0" cy="401.9" r="3" fill="#9a7f8b" opacity="0.66"/>
<circle cx="495.6" cy="433.9" r="3" fill="#9a7f8b" opacity="0.66"/>
<circle cx="542.8" cy="481.3" r="3" fill="#9a7f8b" opacity="0.66"/>
<circle cx="687.7" cy="363.7" r="3" fill="#e6c074" opacity="0.66"/>
<circle cx="560.2" cy="191.8" r="3" fill="#8a93c8" opacity="0.66"/>
<circle cx="460.9" cy="383.6" r="3" fill="#9a7f8b" opacity="0.66"/>
<circle cx="259.8" cy="349.5" r="3" fill="#52c8d0" opacity="0.66"/>
<circle cx="329.5" cy="381.9" r="3" fill="#a7a7b4" opacity="0.66"/>
<circle cx="557.6" cy="411.0" r="3" fill="#9a7f8b" opacity="0.66"/>
<circle cx="150.0" cy="296.7" r="3" fill="#52c8d0" opacity="0.66"/>
<circle cx="124.6" cy="342.8" r="3" fill="#52c8d0" opacity="0.66"/>
<circle cx="412.2" cy="363.3" r="3" fill="#9a7f8b" opacity="0.66"/>
<circle cx="161.9" cy="243.9" r="3" fill="#52c8d0" opacity="0.66"/>
<circle cx="447.7" cy="420.8" r="3" fill="#9a7f8b" opacity="0.66"/>
<circle cx="413.1" cy="361.2" r="3" fill="#9a7f8b" opacity="0.66"/>
<circle cx="94.0" cy="337.2" r="3" fill="#52c8d0" opacity="0.66"/>
<circle cx="397.4" cy="455.5" r="3" fill="#a7a7b4" opacity="0.66"/>
<circle cx="507.8" cy="136.0" r="3" fill="#8a93c8" opacity="0.66"/>
<circle cx="164.2" cy="336.8" r="3" fill="#52c8d0" opacity="0.66"/>
<circle cx="501.9" cy="154.3" r="3" fill="#8a93c8" opacity="0.66"/>
<circle cx="106.9" cy="378.9" r="3" fill="#52c8d0" opacity="0.66"/>
<circle cx="124.6" cy="374.9" r="3" fill="#52c8d0" opacity="0.66"/>
<circle cx="662.3" cy="399.2" r="3" fill="#9a7f8b" opacity="0.66"/>
<circle cx="501.3" cy="197.3" r="3" fill="#8a93c8" opacity="0.66"/>
<circle cx="462.0" cy="442.1" r="3" fill="#9a7f8b" opacity="0.66"/>
<circle cx="273.6" cy="441.8" r="3" fill="#a7a7b4" opacity="0.66"/>
<circle cx="697.4" cy="381.9" r="3" fill="#9a7f8b" opacity="0.66"/>
<circle cx="131.9" cy="366.6" r="3" fill="#52c8d0" opacity="0.66"/>
<circle cx="382.3" cy="155.4" r="3" fill="#8a93c8" opacity="0.66"/>
<circle cx="229.8" cy="250.3" r="3" fill="#52c8d0" opacity="0.66"/>
<circle cx="363.4" cy="396.6" r="3" fill="#a7a7b4" opacity="0.66"/>
<circle cx="214.5" cy="273.2" r="3" fill="#52c8d0" opacity="0.66"/>
<circle cx="470.7" cy="331.2" r="3" fill="#9a7f8b" opacity="0.66"/>
<circle cx="500.4" cy="376.1" r="3" fill="#9a7f8b" opacity="0.66"/>
<circle cx="139.6" cy="360.1" r="3" fill="#52c8d0" opacity="0.66"/>
<circle cx="527.8" cy="244.5" r="3" fill="#8a93c8" opacity="0.66"/>
<circle cx="399.0" cy="346.2" r="3" fill="#9a7f8b" opacity="0.66"/>
<circle cx="436.5" cy="303.0" r="3" fill="#9a7f8b" opacity="0.66"/>
<circle cx="345.1" cy="383.9" r="3" fill="#9a7f8b" opacity="0.66"/>
<circle cx="387.1" cy="154.9" r="3" fill="#8a93c8" opacity="0.66"/>
<circle cx="511.4" cy="419.1" r="3" fill="#9a7f8b" opacity="0.66"/>
<circle cx="123.3" cy="328.6" r="3" fill="#52c8d0" opacity="0.66"/>
<circle cx="375.2" cy="511.5" r="3" fill="#a7a7b4" opacity="0.66"/>
<circle cx="600.4" cy="451.0" r="3" fill="#9a7f8b" opacity="0.66"/>
<circle cx="84.5" cy="366.0" r="3" fill="#52c8d0" opacity="0.66"/>
<circle cx="393.5" cy="352.3" r="3" fill="#9a7f8b" opacity="0.66"/>
<circle cx="366.9" cy="201.8" r="3" fill="#8a93c8" opacity="0.66"/>
<circle cx="90.1" cy="356.5" r="3" fill="#52c8d0" opacity="0.66"/>
<circle cx="177.6" cy="332.4" r="3" fill="#52c8d0" opacity="0.66"/>
<circle cx="71.5" cy="348.8" r="3" fill="#52c8d0" opacity="0.66"/>
<circle cx="103.5" cy="342.5" r="3" fill="#52c8d0" opacity="0.66"/>
<circle cx="138.5" cy="357.6" r="3" fill="#52c8d0" opacity="0.66"/>
<circle cx="537.7" cy="181.2" r="3" fill="#8a93c8" opacity="0.66"/>
<circle cx="371.8" cy="526.7" r="3" fill="#a7a7b4" opacity="0.66"/>
<circle cx="547.7" cy="357.9" r="3" fill="#9a7f8b" opacity="0.66"/>
<circle cx="540.2" cy="160.6" r="3" fill="#8a93c8" opacity="0.66"/>
<circle cx="588.2" cy="321.8" r="3" fill="#8a93c8" opacity="0.66"/>
<circle cx="133.1" cy="228.5" r="3" fill="#52c8d0" opacity="0.66"/>
<circle cx="235.9" cy="443.9" r="3" fill="#a7a7b4" opacity="0.66"/>
<circle cx="247.4" cy="206.4" r="3" fill="#52c8d0" opacity="0.66"/>
<circle cx="93.7" cy="324.6" r="3" fill="#52c8d0" opacity="0.66"/>
<circle cx="529.6" cy="342.8" r="3" fill="#9a7f8b" opacity="0.66"/>
<circle cx="177.6" cy="353.2" r="3" fill="#52c8d0" opacity="0.66"/>
<circle cx="463.3" cy="324.7" r="3" fill="#8a93c8" opacity="0.66"/>
<circle cx="262.3" cy="471.1" r="3" fill="#a7a7b4" opacity="0.66"/>
<circle cx="98.8" cy="311.9" r="3" fill="#52c8d0" opacity="0.66"/>
<circle cx="385.6" cy="184.7" r="3" fill="#8a93c8" opacity="0.66"/>
<circle cx="441.4" cy="163.5" r="3" fill="#8a93c8" opacity="0.66"/>
<circle cx="536.6" cy="449.6" r="3" fill="#9a7f8b" opacity="0.66"/>
<circle cx="425.8" cy="360.2" r="3" fill="#9a7f8b" opacity="0.66"/>
<circle cx="558.8" cy="208.6" r="3" fill="#8a93c8" opacity="0.66"/>
<circle cx="490.5" cy="268.7" r="3" fill="#8a93c8" opacity="0.66"/>
<circle cx="141.9" cy="320.6" r="3" fill="#52c8d0" opacity="0.66"/>
<circle cx="648.4" cy="379.1" r="3" fill="#e6c074" opacity="0.66"/>
<circle cx="201.5" cy="192.7" r="3" fill="#52c8d0" opacity="0.66"/>
<circle cx="584.8" cy="396.2" r="3" fill="#9a7f8b" opacity="0.66"/>
<circle cx="583.6" cy="184.9" r="3" fill="#8a93c8" opacity="0.66"/>
<circle cx="239.9" cy="359.0" r="3" fill="#52c8d0" opacity="0.66"/>
<circle cx="498.2" cy="433.1" r="3" fill="#9a7f8b" opacity="0.66"/>
<circle cx="515.4" cy="465.7" r="3" fill="#9a7f8b" opacity="0.66"/>
<circle cx="213.2" cy="203.2" r="3" fill="#52c8d0" opacity="0.66"/>
<circle cx="441.4" cy="307.5" r="3" fill="#8a93c8" opacity="0.66"/>
<circle cx="162.8" cy="352.8" r="3" fill="#52c8d0" opacity="0.66"/>
<circle cx="418.2" cy="419.8" r="3" fill="#9a7f8b" opacity="0.66"/>
<circle cx="496.9" cy="386.5" r="3" fill="#9a7f8b" opacity="0.66"/>
<circle cx="462.2" cy="409.9" r="3" fill="#9a7f8b" opacity="0.66"/>
<circle cx="62.6" cy="310.8" r="3" fill="#52c8d0" opacity="0.66"/>
<circle cx="83.8" cy="406.4" r="3" fill="#52c8d0" opacity="0.66"/>
<circle cx="565.5" cy="339.4" r="3" fill="#9a7f8b" opacity="0.66"/>
<circle cx="644.2" cy="275.6" r="3" fill="#e6c074" opacity="0.66"/>
<circle cx="513.8" cy="396.5" r="3" fill="#9a7f8b" opacity="0.66"/>
<circle cx="521.4" cy="352.6" r="3" fill="#8a93c8" opacity="0.66"/>
<circle cx="393.5" cy="548.0" r="3" fill="#a7a7b4" opacity="0.66"/>
<circle cx="682.1" cy="293.4" r="3" fill="#e6c074" opacity="0.66"/>
<circle cx="258.6" cy="292.1" r="3" fill="#52c8d0" opacity="0.66"/>
<circle cx="512.7" cy="416.7" r="3" fill="#9a7f8b" opacity="0.66"/>
<circle cx="209.7" cy="157.3" r="3" fill="#52c8d0" opacity="0.66"/>
<circle cx="116.3" cy="352.1" r="3" fill="#52c8d0" opacity="0.66"/>
<circle cx="195.0" cy="403.8" r="3" fill="#a7a7b4" opacity="0.66"/>
<circle cx="201.0" cy="176.0" r="3" fill="#52c8d0" opacity="0.66"/>
<circle cx="465.9" cy="413.8" r="3" fill="#9a7f8b" opacity="0.66"/>
<circle cx="118.7" cy="320.2" r="3" fill="#52c8d0" opacity="0.66"/>
<circle cx="176.0" cy="310.5" r="3" fill="#52c8d0" opacity="0.66"/>
<circle cx="536.2" cy="334.0" r="3" fill="#8a93c8" opacity="0.66"/>
<circle cx="330.7" cy="253.6" r="3" fill="#8a93c8" opacity="0.66"/>
<circle cx="62.2" cy="357.7" r="3" fill="#52c8d0" opacity="0.66"/>
<circle cx="569.9" cy="407.0" r="3" fill="#9a7f8b" opacity="0.66"/>
<circle cx="627.0" cy="430.0" r="3" fill="#9a7f8b" opacity="0.66"/>
<circle cx="406.1" cy="486.7" r="3" fill="#a7a7b4" opacity="0.66"/>
<circle cx="526.4" cy="374.4" r="3" fill="#9a7f8b" opacity="0.66"/>
<circle cx="420.3" cy="265.4" r="3" fill="#8a93c8" opacity="0.66"/>
<circle cx="590.7" cy="430.4" r="3" fill="#9a7f8b" opacity="0.66"/>
<circle cx="102.0" cy="270.1" r="3" fill="#52c8d0" opacity="0.66"/>
<circle cx="604.3" cy="359.0" r="3" fill="#9a7f8b" opacity="0.66"/>
<circle cx="256.1" cy="237.9" r="3" fill="#52c8d0" opacity="0.66"/>
<circle cx="111.7" cy="385.9" r="3" fill="#52c8d0" opacity="0.66"/>
<circle cx="171.8" cy="336.7" r="3" fill="#52c8d0" opacity="0.66"/>
<circle cx="189.7" cy="387.9" r="3" fill="#52c8d0" opacity="0.66"/>
<circle cx="512.5" cy="336.1" r="3" fill="#9a7f8b" opacity="0.66"/>
<circle cx="149.2" cy="263.9" r="3" fill="#52c8d0" opacity="0.66"/>
<circle cx="464.3" cy="529.8" r="3" fill="#4fc98a" opacity="0.66"/>
<circle cx="448.4" cy="529.0" r="3" fill="#4fc98a" opacity="0.66"/>
<circle cx="475.5" cy="535.5" r="3" fill="#4fc98a" opacity="0.66"/>
<circle cx="466.7" cy="517.6" r="3" fill="#4fc98a" opacity="0.66"/>
<circle cx="446.4" cy="537.4" r="3" fill="#4fc98a" opacity="0.66"/>
<circle cx="452.9" cy="534.8" r="3" fill="#4fc98a" opacity="0.66"/>
<circle cx="513.3" cy="528.8" r="3" fill="#4fc98a" opacity="0.66"/>
<circle cx="412.5" cy="515.9" r="3" fill="#4fc98a" opacity="0.66"/>
<circle cx="486.1" cy="515.2" r="3" fill="#4fc98a" opacity="0.66"/>
<circle cx="489.1" cy="527.7" r="3" fill="#4fc98a" opacity="0.66"/>
<circle cx="482.1" cy="525.1" r="3" fill="#4fc98a" opacity="0.66"/>
<circle cx="460.9" cy="546.7" r="3" fill="#4fc98a" opacity="0.66"/>
<circle cx="548.9" cy="515.9" r="3" fill="#4fc98a" opacity="0.66"/>
<circle cx="442.3" cy="531.5" r="3" fill="#4fc98a" opacity="0.66"/>
<circle cx="488.6" cy="501.2" r="3" fill="#4fc98a" opacity="0.66"/>
<circle cx="495.2" cy="524.9" r="3" fill="#4fc98a" opacity="0.66"/>
<circle cx="433.3" cy="527.2" r="3" fill="#4fc98a" opacity="0.66"/>
<circle cx="495.4" cy="475.8" r="3" fill="#4fc98a" opacity="0.66"/>
<circle cx="616.2" cy="223.4" r="3" fill="#e6c074" opacity="0.66"/>
<circle cx="357.2" cy="534.0" r="3" fill="#a7a7b4" opacity="0.66"/>
<circle cx="526.8" cy="477.2" r="3" fill="#4fc98a" opacity="0.66"/>
<circle cx="543.0" cy="463.9" r="3" fill="#4fc98a" opacity="0.66"/>
<circle cx="610.3" cy="421.8" r="3" fill="#4fc98a" opacity="0.66"/>
<circle cx="544.5" cy="481.5" r="3" fill="#4fc98a" opacity="0.66"/>
<circle cx="381.7" cy="459.2" r="3" fill="#4fc98a" opacity="0.66"/>
<circle cx="553.8" cy="420.3" r="3" fill="#4fc98a" opacity="0.66"/>
<circle cx="521.1" cy="497.2" r="3" fill="#4fc98a" opacity="0.66"/>
<circle cx="550.7" cy="504.4" r="3" fill="#4fc98a" opacity="0.66"/>
<circle cx="304.2" cy="424.9" r="3" fill="#a7a7b4" opacity="0.66"/>
<circle cx="490.3" cy="447.6" r="3" fill="#4fc98a" opacity="0.66"/>
<circle cx="515.6" cy="522.6" r="3" fill="#4fc98a" opacity="0.66"/>
<circle cx="393.5" cy="466.3" r="3" fill="#4fc98a" opacity="0.66"/>
<circle cx="508.9" cy="374.4" r="3" fill="#4fc98a" opacity="0.66"/>
<circle cx="447.3" cy="463.3" r="3" fill="#4fc98a" opacity="0.66"/>
<circle cx="554.5" cy="514.5" r="3" fill="#4fc98a" opacity="0.66"/>
<circle cx="494.0" cy="463.9" r="3" fill="#4fc98a" opacity="0.66"/>
<circle cx="541.1" cy="201.0" r="3" fill="#8a93c8" opacity="0.66"/>
<circle cx="486.4" cy="171.8" r="3" fill="#8a93c8" opacity="0.66"/>
<circle cx="567.2" cy="178.5" r="3" fill="#8a93c8" opacity="0.66"/>
<circle cx="315.9" cy="264.7" r="3" fill="#52c8d0" opacity="0.66"/>
<circle cx="576.1" cy="166.4" r="3" fill="#8a93c8" opacity="0.66"/>
<circle cx="463.6" cy="274.5" r="3" fill="#8a93c8" opacity="0.66"/>
<circle cx="462.3" cy="168.3" r="3" fill="#8a93c8" opacity="0.66"/>
<circle cx="455.1" cy="194.3" r="3" fill="#8a93c8" opacity="0.66"/>
<circle cx="522.0" cy="221.4" r="3" fill="#8a93c8" opacity="0.66"/>
<circle cx="604.7" cy="161.9" r="3" fill="#8a93c8" opacity="0.66"/>
<circle cx="515.7" cy="198.7" r="3" fill="#8a93c8" opacity="0.66"/>
<circle cx="284.5" cy="313.7" r="3" fill="#52c8d0" opacity="0.66"/>
<circle cx="397.4" cy="192.2" r="3" fill="#8a93c8" opacity="0.66"/>
<circle cx="564.8" cy="189.7" r="3" fill="#e6c074" opacity="0.66"/>
<circle cx="532.9" cy="135.0" r="3" fill="#8a93c8" opacity="0.66"/>
<circle cx="596.7" cy="259.5" r="3" fill="#e6c074" opacity="0.66"/>
<circle cx="532.6" cy="247.9" r="3" fill="#8a93c8" opacity="0.66"/>
<circle cx="311.6" cy="265.3" r="3" fill="#52c8d0" opacity="0.66"/>
<circle cx="538.9" cy="188.6" r="3" fill="#8a93c8" opacity="0.66"/>
<circle cx="538.7" cy="297.8" r="3" fill="#e6c074" opacity="0.66"/>
<circle cx="537.3" cy="215.3" r="3" fill="#8a93c8" opacity="0.66"/>
<circle cx="672.6" cy="195.2" r="3" fill="#e6c074" opacity="0.66"/>
<circle cx="583.6" cy="182.9" r="3" fill="#8a93c8" opacity="0.66"/>
<circle cx="250.9" cy="247.4" r="3" fill="#52c8d0" opacity="0.66"/>
<circle cx="389.5" cy="166.2" r="3" fill="#8a93c8" opacity="0.66"/>
<circle cx="549.8" cy="209.2" r="3" fill="#8a93c8" opacity="0.66"/>
<circle cx="497.0" cy="271.0" r="3" fill="#8a93c8" opacity="0.66"/>
<circle cx="529.7" cy="114.0" r="3" fill="#8a93c8" opacity="0.66"/>
<circle cx="613.7" cy="198.2" r="3" fill="#8a93c8" opacity="0.66"/>
<circle cx="490.0" cy="221.6" r="3" fill="#8a93c8" opacity="0.66"/>
<circle cx="497.6" cy="207.6" r="3" fill="#8a93c8" opacity="0.66"/>
<circle cx="621.7" cy="188.8" r="3" fill="#e6c074" opacity="0.66"/>
<circle cx="535.3" cy="174.6" r="3" fill="#8a93c8" opacity="0.66"/>
<circle cx="675.4" cy="267.0" r="3" fill="#e6c074" opacity="0.66"/>
<circle cx="490.9" cy="217.6" r="3" fill="#8a93c8" opacity="0.66"/>
<circle cx="596.1" cy="224.3" r="3" fill="#e6c074" opacity="0.66"/>
<circle cx="343.1" cy="299.4" r="3" fill="#52c8d0" opacity="0.66"/>
<circle cx="585.8" cy="246.7" r="3" fill="#8a93c8" opacity="0.66"/>
<circle cx="473.6" cy="361.6" r="3" fill="#9a7f8b" opacity="0.66"/>
<circle cx="477.1" cy="255.4" r="3" fill="#8a93c8" opacity="0.66"/>
<circle cx="281.4" cy="271.4" r="3" fill="#52c8d0" opacity="0.66"/>
<circle cx="436.8" cy="160.6" r="3" fill="#8a93c8" opacity="0.66"/>
<circle cx="384.6" cy="273.6" r="3" fill="#8a93c8" opacity="0.66"/>
<circle cx="473.9" cy="270.3" r="3" fill="#8a93c8" opacity="0.66"/>
<circle cx="466.9" cy="230.8" r="3" fill="#8a93c8" opacity="0.66"/>
<circle cx="613.6" cy="242.2" r="3" fill="#e6c074" opacity="0.66"/>
<circle cx="495.8" cy="178.7" r="3" fill="#8a93c8" opacity="0.66"/>
<circle cx="660.7" cy="198.1" r="3" fill="#e6c074" opacity="0.66"/>
<circle cx="625.2" cy="206.6" r="3" fill="#8a93c8" opacity="0.66"/>
<circle cx="390.3" cy="233.7" r="3" fill="#8a93c8" opacity="0.66"/>
<circle cx="653.6" cy="189.1" r="3" fill="#8a93c8" opacity="0.66"/>
<circle cx="694.0" cy="225.3" r="3" fill="#e6c074" opacity="0.66"/>
<circle cx="686.4" cy="185.7" r="3" fill="#8a93c8" opacity="0.66"/>
<circle cx="438.2" cy="217.1" r="3" fill="#8a93c8" opacity="0.66"/>
<circle cx="668.2" cy="287.3" r="3" fill="#e6c074" opacity="0.66"/>
<circle cx="523.9" cy="257.8" r="3" fill="#8a93c8" opacity="0.66"/>
<circle cx="649.0" cy="190.3" r="3" fill="#8a93c8" opacity="0.66"/>
<circle cx="596.7" cy="224.1" r="3" fill="#8a93c8" opacity="0.66"/>
<circle cx="677.8" cy="167.9" r="3" fill="#8a93c8" opacity="0.66"/>
<circle cx="681.6" cy="227.4" r="3" fill="#e6c074" opacity="0.66"/>
<circle cx="675.3" cy="228.3" r="3" fill="#8a93c8" opacity="0.66"/>
<circle cx="391.2" cy="297.4" r="3" fill="#8a93c8" opacity="0.66"/>
<circle cx="564.8" cy="304.6" r="3" fill="#e6c074" opacity="0.66"/>
<circle cx="489.4" cy="240.5" r="3" fill="#8a93c8" opacity="0.66"/>
<circle cx="533.7" cy="243.9" r="3" fill="#8a93c8" opacity="0.66"/>
<circle cx="546.9" cy="181.2" r="3" fill="#8a93c8" opacity="0.66"/>
<circle cx="561.0" cy="170.5" r="3" fill="#8a93c8" opacity="0.66"/>
<circle cx="241.2" cy="304.0" r="3" fill="#52c8d0" opacity="0.66"/>
<circle cx="341.4" cy="307.7" r="3" fill="#8a93c8" opacity="0.66"/>
<circle cx="378.0" cy="254.9" r="3" fill="#8a93c8" opacity="0.66"/>
<circle cx="577.2" cy="187.8" r="3" fill="#8a93c8" opacity="0.66"/>
<circle cx="493.5" cy="196.6" r="3" fill="#8a93c8" opacity="0.66"/>
<circle cx="467.4" cy="194.4" r="3" fill="#8a93c8" opacity="0.66"/>
<circle cx="642.4" cy="260.3" r="3" fill="#e6c074" opacity="0.66"/>
<circle cx="628.0" cy="223.2" r="3" fill="#8a93c8" opacity="0.66"/>
<circle cx="378.9" cy="305.0" r="3" fill="#8a93c8" opacity="0.66"/>
<circle cx="564.2" cy="200.2" r="3" fill="#8a93c8" opacity="0.66"/>
<circle cx="484.5" cy="125.2" r="3" fill="#8a93c8" opacity="0.66"/>
<circle cx="543.2" cy="203.3" r="3" fill="#8a93c8" opacity="0.66"/>
<circle cx="650.7" cy="209.4" r="3" fill="#8a93c8" opacity="0.66"/>
<circle cx="654.3" cy="213.9" r="3" fill="#8a93c8" opacity="0.66"/>
<circle cx="584.9" cy="221.7" r="3" fill="#8a93c8" opacity="0.66"/>
<circle cx="428.3" cy="283.7" r="3" fill="#8a93c8" opacity="0.66"/>
<circle cx="478.3" cy="307.0" r="3" fill="#8a93c8" opacity="0.66"/>
<circle cx="619.6" cy="239.0" r="3" fill="#8a93c8" opacity="0.66"/>
<circle cx="519.4" cy="161.8" r="3" fill="#8a93c8" opacity="0.66"/>
<circle cx="631.4" cy="233.1" r="3" fill="#e6c074" opacity="0.66"/>
<circle cx="596.4" cy="214.7" r="3" fill="#8a93c8" opacity="0.66"/>
<circle cx="735.1" cy="233.5" r="3" fill="#e6c074" opacity="0.66"/>
<circle cx="535.9" cy="173.7" r="3" fill="#8a93c8" opacity="0.66"/>
<circle cx="595.6" cy="209.2" r="3" fill="#8a93c8" opacity="0.66"/>
<circle cx="419.5" cy="184.5" r="3" fill="#8a93c8" opacity="0.66"/>
<circle cx="404.1" cy="298.6" r="3" fill="#8a93c8" opacity="0.66"/>
<circle cx="558.6" cy="311.4" r="3" fill="#8a93c8" opacity="0.66"/>
<circle cx="470.8" cy="272.7" r="3" fill="#8a93c8" opacity="0.66"/>
<circle cx="242.1" cy="249.4" r="3" fill="#52c8d0" opacity="0.66"/>
<circle cx="642.9" cy="240.9" r="3" fill="#e6c074" opacity="0.66"/>
<circle cx="471.9" cy="193.8" r="3" fill="#8a93c8" opacity="0.66"/>
<circle cx="111.4" cy="370.0" r="3" fill="#52c8d0" opacity="0.66"/>
<circle cx="122.3" cy="265.3" r="3" fill="#52c8d0" opacity="0.66"/>
<circle cx="183.9" cy="196.7" r="3" fill="#52c8d0" opacity="0.66"/>
<circle cx="150.9" cy="271.0" r="3" fill="#52c8d0" opacity="0.66"/>
<circle cx="123.6" cy="285.3" r="3" fill="#52c8d0" opacity="0.66"/>
<circle cx="201.6" cy="276.5" r="3" fill="#52c8d0" opacity="0.66"/>
<circle cx="268.2" cy="237.0" r="3" fill="#52c8d0" opacity="0.66"/>
<circle cx="196.0" cy="228.6" r="3" fill="#52c8d0" opacity="0.66"/>
<circle cx="97.2" cy="317.5" r="3" fill="#52c8d0" opacity="0.66"/>
<circle cx="132.1" cy="315.2" r="3" fill="#52c8d0" opacity="0.66"/>
<circle cx="94.0" cy="334.9" r="3" fill="#52c8d0" opacity="0.66"/>
<circle cx="118.4" cy="358.6" r="3" fill="#52c8d0" opacity="0.66"/>
<circle cx="507.5" cy="244.7" r="3" fill="#e6c074" opacity="0.66"/>
<circle cx="174.5" cy="269.0" r="3" fill="#52c8d0" opacity="0.66"/>
<circle cx="144.6" cy="271.4" r="3" fill="#52c8d0" opacity="0.66"/>
<circle cx="147.1" cy="198.4" r="3" fill="#52c8d0" opacity="0.66"/>
<circle cx="132.2" cy="294.2" r="3" fill="#52c8d0" opacity="0.66"/>
<circle cx="120.0" cy="233.2" r="3" fill="#52c8d0" opacity="0.66"/>
<circle cx="218.9" cy="159.4" r="3" fill="#52c8d0" opacity="0.66"/>
<circle cx="221.5" cy="197.6" r="3" fill="#52c8d0" opacity="0.66"/>
<circle cx="428.4" cy="298.5" r="3" fill="#52c8d0" opacity="0.66"/>
<circle cx="140.4" cy="259.3" r="3" fill="#52c8d0" opacity="0.66"/>
<circle cx="334.9" cy="213.3" r="3" fill="#52c8d0" opacity="0.66"/>
<circle cx="143.0" cy="238.4" r="3" fill="#52c8d0" opacity="0.66"/>
<circle cx="296.2" cy="173.4" r="3" fill="#52c8d0" opacity="0.66"/>
<circle cx="138.3" cy="218.9" r="3" fill="#52c8d0" opacity="0.66"/>
<circle cx="181.1" cy="340.7" r="3" fill="#52c8d0" opacity="0.66"/>
<circle cx="184.6" cy="230.9" r="3" fill="#52c8d0" opacity="0.66"/>
<circle cx="75.8" cy="293.9" r="3" fill="#52c8d0" opacity="0.66"/>
<circle cx="145.2" cy="238.5" r="3" fill="#52c8d0" opacity="0.66"/>
<circle cx="124.1" cy="300.2" r="3" fill="#52c8d0" opacity="0.66"/>
<circle cx="184.2" cy="263.9" r="3" fill="#52c8d0" opacity="0.66"/>
<circle cx="96.2" cy="228.1" r="3" fill="#52c8d0" opacity="0.66"/>
<circle cx="118.9" cy="313.6" r="3" fill="#52c8d0" opacity="0.66"/>
<circle cx="310.6" cy="210.1" r="3" fill="#52c8d0" opacity="0.66"/>
<circle cx="184.4" cy="194.6" r="3" fill="#52c8d0" opacity="0.66"/>
<circle cx="128.4" cy="226.8" r="3" fill="#52c8d0" opacity="0.66"/>
<circle cx="145.3" cy="269.4" r="3" fill="#52c8d0" opacity="0.66"/>
<circle cx="224.0" cy="229.8" r="3" fill="#52c8d0" opacity="0.66"/>
<circle cx="140.6" cy="267.4" r="3" fill="#52c8d0" opacity="0.66"/>
<circle cx="218.8" cy="193.5" r="3" fill="#52c8d0" opacity="0.66"/>
<circle cx="96.4" cy="378.9" r="3" fill="#52c8d0" opacity="0.66"/>
<circle cx="205.9" cy="351.2" r="3" fill="#52c8d0" opacity="0.66"/>
<circle cx="129.0" cy="295.0" r="3" fill="#52c8d0" opacity="0.66"/>
<circle cx="129.4" cy="206.4" r="3" fill="#52c8d0" opacity="0.66"/>
<circle cx="138.1" cy="234.2" r="3" fill="#52c8d0" opacity="0.66"/>
<circle cx="149.5" cy="256.7" r="3" fill="#52c8d0" opacity="0.66"/>
<circle cx="118.1" cy="234.2" r="3" fill="#52c8d0" opacity="0.66"/>
<circle cx="58.0" cy="311.0" r="3" fill="#52c8d0" opacity="0.66"/>
<circle cx="172.9" cy="340.6" r="3" fill="#52c8d0" opacity="0.66"/>
<circle cx="147.2" cy="235.8" r="3" fill="#52c8d0" opacity="0.66"/>
<circle cx="88.7" cy="246.1" r="3" fill="#52c8d0" opacity="0.66"/>
<circle cx="157.8" cy="253.3" r="3" fill="#52c8d0" opacity="0.66"/>
<circle cx="173.0" cy="201.7" r="3" fill="#52c8d0" opacity="0.66"/>
<circle cx="121.1" cy="232.8" r="3" fill="#52c8d0" opacity="0.66"/>
<circle cx="86.9" cy="271.2" r="3" fill="#52c8d0" opacity="0.66"/>
<circle cx="215.2" cy="354.8" r="3" fill="#52c8d0" opacity="0.66"/>
<circle cx="339.1" cy="224.5" r="3" fill="#52c8d0" opacity="0.66"/>
<circle cx="116.9" cy="301.5" r="3" fill="#52c8d0" opacity="0.66"/>
<circle cx="150.7" cy="198.1" r="3" fill="#52c8d0" opacity="0.66"/>
<circle cx="76.3" cy="242.0" r="3" fill="#52c8d0" opacity="0.66"/>
<circle cx="143.8" cy="271.6" r="3" fill="#52c8d0" opacity="0.66"/>
<circle cx="423.6" cy="211.2" r="3" fill="#8a93c8" opacity="0.66"/>
<circle cx="424.2" cy="509.2" r="3" fill="#a7a7b4" opacity="0.66"/>
<circle cx="468.2" cy="497.7" r="3" fill="#a7a7b4" opacity="0.66"/>
<circle cx="744.2" cy="265.2" r="3" fill="#e6c074" opacity="0.66"/>
<circle cx="725.4" cy="255.7" r="3" fill="#e6c074" opacity="0.66"/>
<circle cx="461.2" cy="470.9" r="3" fill="#a7a7b4" opacity="0.66"/>
<circle cx="369.9" cy="491.0" r="3" fill="#a7a7b4" opacity="0.66"/>
<circle cx="670.5" cy="273.6" r="3" fill="#e6c074" opacity="0.66"/>
<circle cx="392.0" cy="514.2" r="3" fill="#a7a7b4" opacity="0.66"/>
<circle cx="389.3" cy="513.1" r="3" fill="#a7a7b4" opacity="0.66"/>
<circle cx="249.0" cy="328.3" r="3" fill="#52c8d0" opacity="0.66"/>
<circle cx="408.1" cy="173.9" r="3" fill="#52c8d0" opacity="0.66"/>
<circle cx="295.2" cy="219.9" r="3" fill="#52c8d0" opacity="0.66"/>
<circle cx="129.0" cy="283.4" r="3" fill="#52c8d0" opacity="0.66"/>
<circle cx="341.4" cy="218.5" r="3" fill="#52c8d0" opacity="0.66"/>
<circle cx="151.0" cy="309.8" r="3" fill="#52c8d0" opacity="0.66"/>
<circle cx="230.6" cy="300.9" r="3" fill="#52c8d0" opacity="0.66"/>
<circle cx="200.9" cy="255.3" r="3" fill="#52c8d0" opacity="0.66"/>
<circle cx="232.3" cy="331.1" r="3" fill="#52c8d0" opacity="0.66"/>
<circle cx="358.8" cy="184.6" r="3" fill="#52c8d0" opacity="0.66"/>
<circle cx="192.9" cy="244.1" r="3" fill="#52c8d0" opacity="0.66"/>
<circle cx="371.9" cy="286.5" r="3" fill="#52c8d0" opacity="0.66"/>
<circle cx="244.8" cy="331.0" r="3" fill="#52c8d0" opacity="0.66"/>
<circle cx="254.8" cy="184.3" r="3" fill="#52c8d0" opacity="0.66"/>
<circle cx="365.2" cy="221.5" r="3" fill="#52c8d0" opacity="0.66"/>
<circle cx="195.7" cy="239.4" r="3" fill="#52c8d0" opacity="0.66"/>
<circle cx="624.0" cy="267.4" r="3" fill="#e6c074" opacity="0.66"/>
<circle cx="648.5" cy="351.1" r="3" fill="#e6c074" opacity="0.66"/>
<circle cx="647.8" cy="340.8" r="3" fill="#e6c074" opacity="0.66"/>
<circle cx="666.1" cy="233.3" r="3" fill="#e6c074" opacity="0.66"/>
<circle cx="652.5" cy="389.2" r="3" fill="#e6c074" opacity="0.66"/>
<circle cx="717.4" cy="191.8" r="3" fill="#e6c074" opacity="0.66"/>
<circle cx="705.8" cy="323.4" r="3" fill="#e6c074" opacity="0.66"/>
<circle cx="662.7" cy="322.8" r="3" fill="#e6c074" opacity="0.66"/>
<circle cx="782.0" cy="283.8" r="3" fill="#e6c074" opacity="0.66"/>
<circle cx="721.7" cy="365.6" r="3" fill="#e6c074" opacity="0.66"/>
<circle cx="721.3" cy="311.4" r="3" fill="#e6c074" opacity="0.66"/>
<circle cx="610.2" cy="300.4" r="3" fill="#e6c074" opacity="0.66"/>
<circle cx="667.6" cy="307.3" r="3" fill="#e6c074" opacity="0.66"/>
<circle cx="723.4" cy="282.3" r="3" fill="#e6c074" opacity="0.66"/>
<circle cx="692.6" cy="302.5" r="3" fill="#e6c074" opacity="0.66"/>
<circle cx="760.4" cy="306.1" r="3" fill="#e6c074" opacity="0.66"/>
<circle cx="669.7" cy="380.2" r="3" fill="#e6c074" opacity="0.66"/>
<circle cx="690.1" cy="345.6" r="3" fill="#e6c074" opacity="0.66"/>
<circle cx="732.2" cy="279.7" r="3" fill="#e6c074" opacity="0.66"/>
<circle cx="690.3" cy="249.3" r="3" fill="#e6c074" opacity="0.66"/>
<circle cx="741.4" cy="222.9" r="3" fill="#e6c074" opacity="0.66"/>
<circle cx="715.7" cy="342.0" r="3" fill="#e6c074" opacity="0.66"/>
<circle cx="665.6" cy="331.8" r="3" fill="#e6c074" opacity="0.66"/>
<circle cx="736.0" cy="322.6" r="3" fill="#e6c074" opacity="0.66"/>
<circle cx="679.7" cy="325.0" r="3" fill="#e6c074" opacity="0.66"/>
<circle cx="651.3" cy="338.3" r="3" fill="#e6c074" opacity="0.66"/>
<circle cx="705.3" cy="233.7" r="3" fill="#e6c074" opacity="0.66"/>
<circle cx="741.7" cy="299.9" r="3" fill="#e6c074" opacity="0.66"/>
<circle cx="634.9" cy="354.9" r="3" fill="#e6c074" opacity="0.66"/>
<circle cx="732.5" cy="282.1" r="3" fill="#e6c074" opacity="0.66"/>
<circle cx="718.0" cy="278.0" r="3" fill="#e6c074" opacity="0.66"/>
<circle cx="632.4" cy="399.4" r="3" fill="#e6c074" opacity="0.66"/>
<circle cx="721.5" cy="254.8" r="3" fill="#e6c074" opacity="0.66"/>
<circle cx="622.1" cy="339.1" r="3" fill="#e6c074" opacity="0.66"/>
<circle cx="672.0" cy="350.0" r="3" fill="#e6c074" opacity="0.66"/>
<circle cx="552.8" cy="372.7" r="3" fill="#e6c074" opacity="0.66"/>
<circle cx="743.1" cy="264.3" r="3" fill="#e6c074" opacity="0.66"/>
<circle cx="760.4" cy="325.9" r="3" fill="#e6c074" opacity="0.66"/>
<circle cx="709.4" cy="307.8" r="3" fill="#e6c074" opacity="0.66"/>
<circle cx="677.6" cy="328.0" r="3" fill="#e6c074" opacity="0.66"/>
<circle cx="675.6" cy="353.4" r="3" fill="#e6c074" opacity="0.66"/>
<circle cx="581.2" cy="220.9" r="3" fill="#e6c074" opacity="0.66"/>
<circle cx="729.7" cy="283.6" r="3" fill="#e6c074" opacity="0.66"/>
<circle cx="708.0" cy="306.9" r="3" fill="#e6c074" opacity="0.66"/>
<circle cx="658.8" cy="151.2" r="3" fill="#8a93c8" opacity="0.66"/>
<circle cx="639.0" cy="344.7" r="3" fill="#e6c074" opacity="0.66"/>
<circle cx="688.7" cy="200.7" r="3" fill="#e6c074" opacity="0.66"/>
<circle cx="668.3" cy="205.7" r="3" fill="#e6c074" opacity="0.66"/>
<circle cx="676.3" cy="263.1" r="3" fill="#e6c074" opacity="0.66"/>
<circle cx="673.7" cy="366.1" r="3" fill="#e6c074" opacity="0.66"/>
<circle cx="661.8" cy="378.7" r="3" fill="#e6c074" opacity="0.66"/>
<circle cx="709.7" cy="348.5" r="3" fill="#e6c074" opacity="0.66"/>
<circle cx="698.7" cy="272.9" r="3" fill="#e6c074" opacity="0.66"/>
<circle cx="768.7" cy="228.3" r="3" fill="#e6c074" opacity="0.66"/>
<circle cx="756.3" cy="261.9" r="3" fill="#e6c074" opacity="0.66"/>
<circle cx="699.8" cy="331.0" r="3" fill="#e6c074" opacity="0.66"/>
<circle cx="707.6" cy="352.0" r="3" fill="#e6c074" opacity="0.66"/>
<circle cx="681.6" cy="335.6" r="3" fill="#e6c074" opacity="0.66"/>
<circle cx="768.6" cy="252.6" r="3" fill="#e6c074" opacity="0.66"/>
<circle cx="579.3" cy="391.7" r="3" fill="#9a7f8b" opacity="0.66"/>
<circle cx="753.4" cy="310.5" r="3" fill="#e6c074" opacity="0.66"/>
<circle cx="722.1" cy="315.3" r="3" fill="#e6c074" opacity="0.66"/>
<circle cx="737.5" cy="301.8" r="3" fill="#e6c074" opacity="0.66"/>
<circle cx="707.4" cy="322.0" r="3" fill="#e6c074" opacity="0.66"/>
<circle cx="742.3" cy="334.9" r="3" fill="#e6c074" opacity="0.66"/>
<circle cx="558.3" cy="194.9" r="3" fill="#8a93c8" opacity="0.66"/>
<circle cx="552.7" cy="220.8" r="3" fill="#e6c074" opacity="0.66"/>
<circle cx="408.9" cy="516.3" r="3" fill="#a7a7b4" opacity="0.66"/>
<circle cx="442.6" cy="476.0" r="3" fill="#a7a7b4" opacity="0.66"/>
<circle cx="524.5" cy="283.4" r="3" fill="#e6c074" opacity="0.66"/>
<text x="826" y="112" fill="#6b7080" font-size="12.5">CLUSTERS FOUND, AND NAMED, BY THE PLUGIN</text>
<circle cx="833" cy="133" r="5" fill="#52c8d0"/>
<text x="848" y="138" fill="#c8cbd6" font-size="14">linear algebra</text>
<text x="848" y="155" fill="#6b7080" font-size="12">135 notes</text>
<circle cx="833" cy="179" r="5" fill="#8a93c8"/>
<text x="848" y="184" fill="#c8cbd6" font-size="14">machine learning</text>
<text x="848" y="201" fill="#6b7080" font-size="12">100 notes</text>
<circle cx="833" cy="225" r="5" fill="#e6c074"/>
<text x="848" y="230" fill="#c8cbd6" font-size="14">patterns / databases</text>
<text x="848" y="247" fill="#6b7080" font-size="12">91 notes</text>
<circle cx="833" cy="271" r="5" fill="#9a7f8b"/>
<text x="848" y="276" fill="#c8cbd6" font-size="14">algorithms / search</text>
<text x="848" y="293" fill="#6b7080" font-size="12">47 notes</text>
<circle cx="833" cy="317" r="5" fill="#4fc98a"/>
<text x="848" y="322" fill="#c8cbd6" font-size="14">daily notes</text>
<text x="848" y="339" fill="#6b7080" font-size="12">33 notes</text>
<circle cx="833" cy="363" r="5" fill="#a7a7b4"/>
<text x="848" y="368" fill="#c8cbd6" font-size="14">drafts and stubs</text>
<text x="848" y="385" fill="#6b7080" font-size="12">27 notes</text>
<text x="40" y="594" fill="#6b7080" font-size="12.5">433 notes from the lab vault behind every figure here. Cluster purity 0.65, against 0.29 for a shuffled baseline, so the grouping is not chance.</text>
</svg>